# AST/ASF file generated using VICON BodyLanguage
# -----------------------------------------------
:version 1.10
:name VICON
:units
  mass 1.0
  length 0.45
  angle deg
:documentation
   .ast/.asf automatically generated from VICON data using
   VICON BodyBuilder and BodyLanguage model FoxedUp or BRILLIANT.MOD
:root
   order TX TY TZ RX RY RZ
   axis XYZ
   position 0 0 0  
   orientation 0 0 0 
:bonedata
  begin
     id 1 
     name lhipjoint
     direction 0.541323 -0.757556 0.364798 
     length 2.47576 
     axis 0 0 0  XYZ
  end
  begin
     id 2 
     name lfemur
     direction 0.34202 -0.939693 0  
     length 7.46493  
     axis 0 0 20  XYZ
    dof rx ry rz
    limits (-160.0 20.0)
           (-70.0 70.0)
           (-60.0 70.0)
  end
  begin
     id 3 
     name ltibia
     direction 0.34202 -0.939693 0   
     length 7.73805   
     axis 0 0 20   XYZ
    dof rx
    limits (-10.0 170.0)
  end
  begin
     id 4 
     name lfoot
     direction 0.107174 -0.294458 0.949636   
     length 2.25864   
     axis -90 7.62852e-016 20   XYZ
    dof rx rz
    limits (-45.0 90.0)
           (-70.0 20.0)
  end
  begin
     id 5 
     name ltoes
     direction 1.53606e-011 -4.21934e-011 1   
     length 1.12451   
     axis -90 7.62852e-016 20   XYZ
    dof rx
    limits (-90.0 20.0)
  end
  begin
     id 6 
     name rhipjoint
     direction -0.524745 -0.766967 0.36933   
     length 2.44538  
     axis 0 0 0  XYZ 
  end
  begin
     id 7 
     name rfemur
     direction -0.34202 -0.939693 0   
     length 7.61604   
     axis 0 0 -20   XYZ
    dof rx ry rz
    limits (-160.0 20.0)
           (-70.0 70.0)
           (-70.0 60.0)
  end
  begin
     id 8 
     name rtibia
     direction -0.34202 -0.939693 0   
     length 7.61056   
     axis 0 0 -20   XYZ
    dof rx
    limits (-10.0 170.0)
 end
 begin
     id 9 
     name rfoot
     direction -0.12616 -0.346623 0.929482   
     length 2.46372  
     axis -90 -7.62852e-016 -20   XYZ
    dof rx rz
    limits (-45.0 90.0)
           (-20.0 70.0)
  end
  begin
     id 10 
     name rtoes
     direction -1.53531e-011 -4.22004e-011 1   
     length 1.21611   
     axis -90 -7.62852e-016 -20   XYZ
    dof rx
    limits (-90.0 20.0)
  end
  begin
     id 11 
     name lowerback
     direction -0.000778023 0.997293 -0.0735223   
     length 2.06139   
     axis 0 0 0   XYZ
    dof rx ry rz
    limits (-20.0 45.0)
           (-30.0 30.0)
           (-30.0 30.0)
  end
  begin
     id 12 
     name upperback
     direction 0.0222598 0.999722 -0.0078355   
     length 2.06383   
     axis 0 0 0   XYZ
    dof rx ry rz
    limits (-20.0 45.0)
           (-30.0 30.0)
           (-30.0 30.0)
  end
  begin
     id 13 
     name thorax
     direction 0.0219654 0.999405 0.0265994   
     length 2.07163   
     axis 0 0 0   XYZ
    dof rx ry rz
    limits (-20.0 45.0)
           (-30.0 30.0)
           (-30.0 30.0)
  end
  begin
     id 14 
     name lowerneck
     direction 0.0213282 0.988147 0.15202   
     length 1.75969   
     axis 0 0 0   XYZ
    dof rx ry rz
    limits (-20.0 45.0)
           (-30.0 30.0)
           (-30.0 30.0)
  end
  begin
     id 15 
     name upperneck
     direction -0.0546456 0.982624 -0.177379   
     length 1.79244   
     axis 0 0 0   XYZ
    dof rx ry rz
    limits (-20.0 45.0)
           (-30.0 30.0)
           (-30.0 30.0)
  end
  begin
     id 16
     name head
     direction -0.0199987 0.996855 -0.076686  
     length 1.80555  
     axis 0 0 0   XYZ
    dof rx ry rz
    limits (-20.0 45.0)
           (-30.0 30.0)
           (-30.0 30.0)
  end
  begin
     id 17 
     name lclavicle
     direction 0.929565 0.363219 -0.063096  
     length 3.55722  
     axis 0 0 0   XYZ
    dof ry rz
    limits (-20.0 10.0)
           (0.0 20.0)
  end
  begin
     id 18 
     name lhumerus
     direction 1 -4.48993e-011 -2.36203e-027   
     length 4.92785   
     axis 180 -30 -90   XYZ
    dof rx ry rz
    limits (-60.0 90.0)
           (-90.0 90.0)
           (-90.0 90.0)
  end
  begin
     id 19
     name lradius
     direction 1 -4.48947e-011 2.02997e-027   
     length 3.44052   
     axis 180 -30 -90   XYZ
    dof rx
    limits (-10.0 170.0)
  end
  begin
     id 20
     name lwrist
     direction 1 -4.48962e-011 1.45991e-027   
     length 1.72026   
     axis 1.49639e-024 90 90   XYZ
    dof ry
    limits (-180.0 0.0)
 end
  begin
     id 21 
     name lhand
     direction 1 -4.48984e-011 2.91906e-027   
     length 0.654326   
     axis -1.863e-015 90 90   XYZ
    dof rx rz
    limits (-90.0 90.0)
           (-45.0 45.0)
  end
  begin
     id 22 
     name lfingers
     direction 1 -4.48961e-011 5.83968e-027   
     length 0.527534   
     axis -3.72598e-015 90 90   XYZ
    dof rx
    limits (0.0 90.0)
  end
  begin
     id 23
     name lthumb
     direction 0.707107 -6.34963e-011 0.707107   
     length 0.757437   
     axis -90 45 -6.68868e-015   XYZ
    dof rx rz
    limits (-45.0 45.0)
           (-45.0 45.0)
  end
  begin
     id 24 
     name rclavicle
     direction -0.902944 0.422599 -0.0781198   
     length 3.54432  
     axis 0 0 0   XYZ 
    dof ry rz
    limits (-10.0 20.0)
           (-20.0 0.0)
  end
  begin
     id 25 
     name rhumerus
     direction -1 -4.48953e-011 -4.75835e-028  
     length 5.09181   
     axis 180 30 90   XYZ
    dof rx ry rz
    limits (-90.0 60.0)
           (-90.0 90.0)
           (-90.0 90.0)
  end
  begin
     id 26 
     name rradius
     direction -1 -4.48986e-011 -3.25889e-027   
     length 3.49865   
     axis 180 30 90   XYZ
    dof rx
    limits (-10.0 170.0)
  end
  begin
     id 27 
     name rwrist
     direction -1 -4.48963e-011 1.45989e-027   
     length 1.74933   
     axis 1.49639e-024 -90 -90   XYZ
    dof ry
    limits (-180.0 0.0)
  end
  begin
     id 28
     name rhand
     direction -1 -4.49003e-011 2.91844e-027   
     length 0.66641   
     axis -1.863e-015 -90 -90   XYZ
    dof rx rz
    limits (-90.0 90.0)
           (-45.0 45.0)
  end
  begin
     id 29
     name rfingers
     direction -1 -4.48973e-011 5.83886e-027   
     length 0.537277   
     axis -3.72598e-015 -90 -90   XYZ
    dof rx
    limits (0.0 90.0)
  end
  begin
     id 30
     name rthumb
     direction -0.707107 -6.34976e-011 0.707107   
     length 0.771425   
     axis -90 -45 6.68868e-015   XYZ
    dof rx rz
    limits (-45.0 45.0)
           (-45.0 45.0)
  end
:hierarchy
  begin
    root lhipjoint rhipjoint lowerback
    lhipjoint lfemur
    lfemur ltibia
    ltibia lfoot
    lfoot ltoes
    rhipjoint rfemur
    rfemur rtibia
    rtibia rfoot
    rfoot rtoes
    lowerback upperback
    upperback thorax
    thorax lowerneck lclavicle rclavicle
    lowerneck upperneck
    upperneck head
    lclavicle lhumerus
    lhumerus lradius
    lradius lwrist
    lwrist lhand lthumb
    lhand lfingers
    rclavicle rhumerus
    rhumerus rradius
    rradius rwrist
    rwrist rhand rthumb
    rhand rfingers
  end

#!OML:ASF H:\LiuWeirdWalks\Patient Classification 1\Patient 1\Session 1\male.ASF
:FULLY-SPECIFIED
:DEGREES
22
root 0.448826 17.9571 -29.2293 4.68768 4.67781 -1.32096
lowerback -0.737412 -1.70101 -2.17512
upperback -2.27981 -2.23616 2.99377
thorax -1.72659 -1.05512 4.31915
lowerneck -19.5972 -5.17763 4.6944
upperneck 26.7403 -6.31523 -9.08245
head 11.4597 -3.58641 -5.13402
rclavicle 1.65805e-014 8.74653e-015
rhumerus -37.6961 -18.0938 -67.2097
rradius 27.2746
rwrist -5.56172
rhand -15.2488 -1.71511
rfingers 7.12502
rthumb 10.9248 -31.4109
lclavicle 1.65805e-014 8.74653e-015
lhumerus -40.0823 7.99253 75.9849
lradius 31.5289
lwrist 9.00109
lhand -12.8435 -0.149238
lfingers 7.12502
lthumb 13.244 29.41
rfemur -9.80193 -4.22338 21.3053
rtibia 29.597
rfoot -15.6809 -24.2014
rtoes -3.0784
lfemur -8.67468 -1.30658 -18.3456
ltibia 25.3863
lfoot -13.2108 14.6344
ltoes -6.23728
23
root 0.448968 17.9572 -29.2311 4.68518 4.67292 -1.33087
lowerback -0.725876 -1.68306 -2.14612
upperback -2.23463 -2.21294 2.97524
thorax -1.69031 -1.04546 4.28278
lowerneck -19.5899 -5.26024 4.52091
upperneck 26.6934 -6.42706 -8.90653
head 11.4459 -3.63138 -5.0514
rclavicle 4.72735e-015 2.5842e-014
rhumerus -37.6331 -18.1425 -67.287
rradius 27.3142
rwrist -5.56767
rhand -15.2497 -1.68424
rfingers 7.12502
rthumb 10.9239 -31.3801
lclavicle 4.72735e-015 2.5842e-014
lhumerus -39.9804 7.91258 76.0868
lradius 31.5555
lwrist 9.03018
lhand -12.8595 -0.146494
lfingers 7.12502
lthumb 13.2286 29.4138
rfemur -9.80818 -4.21084 21.3162
rtibia 29.5991
rfoot -15.6805 -24.2053
rtoes -3.07058
lfemur -8.67801 -1.30527 -18.3361
ltibia 25.3855
lfoot -13.2048 14.6418
ltoes -6.23097
24
root 0.448911 17.9575 -29.2333 4.68926 4.67049 -1.33888
lowerback -0.710274 -1.85952 -2.19865
upperback -2.2464 -2.44697 3.14537
thorax -1.68116 -1.16067 4.49035
lowerneck -19.7459 -4.90216 4.61239
upperneck 26.7077 -5.85667 -9.22608
head 11.5162 -3.40766 -5.11935
rclavicle 5.03112e-014 -3.18055e-015
rhumerus -37.3563 -17.4562 -67.4506
rradius 27.3133
rwrist -5.64624
rhand -15.255 -1.67696
rfingers 7.12502
rthumb 10.9188 -31.3731
lclavicle 5.03112e-014 -3.18055e-015
lhumerus -40.2146 8.51779 76.1216
lradius 31.6427
lwrist 8.9738
lhand -12.8525 -0.168648
lfingers 7.12502
lthumb 13.2354 29.3912
rfemur -9.82415 -4.19547 21.3275
rtibia 29.6011
rfoot -15.6735 -24.2169
rtoes -3.06969
lfemur -8.6936 -1.30148 -18.327
ltibia 25.3881
lfoot -13.1975 14.644
ltoes -6.23677
25
root 0.448736 17.9577 -29.2356 4.69431 4.67075 -1.34615
lowerback -0.688959 -2.10045 -2.26759
upperback -2.26895 -2.76661 3.37348
thorax -1.67273 -1.31804 4.76816
lowerneck -20.0034 -4.37804 4.8485
upperneck 26.7516 -5.03804 -9.75418
head 11.6323 -3.08614 -5.26334
rclavicle 2.36833e-014 -1.11319e-014
rhumerus -36.9996 -16.5186 -67.6518
rradius 27.3054
rwrist -5.76281
rhand -15.2527 -1.67528
rfingers 7.12502
rthumb 10.921 -31.3713
lclavicle 2.36833e-014 -1.11319e-014
lhumerus -40.5333 9.35574 76.1281
lradius 31.743
lwrist 8.88017
lhand -12.8398 -0.186943
lfingers 7.12502
lthumb 13.2476 29.3721
rfemur -9.84241 -4.18038 21.3391
rtibia 29.6045
rfoot -15.663 -24.2316
rtoes -3.07262
lfemur -8.71113 -1.29384 -18.3175
ltibia 25.3923
lfoot -13.1917 14.6377
ltoes -6.24609
26
root 0.448446 17.9579 -29.2381 4.70087 4.67579 -1.35003
lowerback -0.662638 -2.30485 -2.32237
upperback -2.28817 -3.038 3.56168
thorax -1.66812 -1.45183 4.99674
lowerneck -20.2089 -3.93497 5.04363
upperneck 26.7841 -4.34558 -10.1927
head 11.7336 -2.81424 -5.38062
rclavicle 9.67367e-015 1.66979e-014
rhumerus -36.7041 -15.7067 -67.8357
rradius 27.3133
rwrist -5.87952
rhand -15.2417 -1.67415
rfingers 7.12502
rthumb 10.9316 -31.3696
lclavicle 9.67367e-015 1.66979e-014
lhumerus -40.7885 10.0572 76.1412
lradius 31.8334
lwrist 8.80253
lhand -12.8278 -0.188989
lfingers 7.12502
lthumb 13.2591 29.3693
rfemur -9.86304 -4.16918 21.3478
rtibia 29.6102
rfoot -15.6541 -24.2473
rtoes -3.07804
lfemur -8.73105 -1.28215 -18.31
ltibia 25.3957
lfoot -13.1859 14.6209
ltoes -6.26119
